<?xml version="1.0" encoding="UTF-8" standalone="no"?>
<!-- Created with Inkscape (http://www.inkscape.org/) -->

<svg
   width="1000"
   height="600"
   viewBox="0 0 264.58333 158.75"
   version="1.1"
   id="svg5"
   inkscape:version="1.2.2 (732a01da63, 2022-12-09)"
   sodipodi:docname="logo.svg"
   xmlns:inkscape="http://www.inkscape.org/namespaces/inkscape"
   xmlns:sodipodi="http://sodipodi.sourceforge.net/DTD/sodipodi-0.dtd"
   xmlns="http://www.w3.org/2000/svg"
   xmlns:svg="http://www.w3.org/2000/svg">
  <sodipodi:namedview
     id="namedview7"
     pagecolor="#ffffff"
     bordercolor="#000000"
     borderopacity="0.25"
     inkscape:showpageshadow="2"
     inkscape:pageopacity="0.0"
     inkscape:pagecheckerboard="0"
     inkscape:deskcolor="#d1d1d1"
     inkscape:document-units="mm"
     showgrid="false"
     inkscape:zoom="1.5393939"
     inkscape:cx="359.23228"
     inkscape:cy="209.49803"
     inkscape:window-width="1920"
     inkscape:window-height="1051"
     inkscape:window-x="-9"
     inkscape:window-y="-9"
     inkscape:window-maximized="1"
     inkscape:current-layer="layer1" />
  <defs
     id="defs2">
    <rect
       x="120.17717"
       y="458.62205"
       width="100.03937"
       height="19.488189"
       id="rect401" />
  </defs>
  <g
     inkscape:label="Camada 1"
     inkscape:groupmode="layer"
     id="layer1">
    <text
       xml:space="preserve"
       style="font-size:3.175px;white-space:pre;inline-size:42.7764;display:inline;fill:#000000;stroke-width:0.264583"
       x="31.968748"
       y="121.34375"
       id="text347" />
    <text
       xml:space="preserve"
       transform="scale(0.26458333)"
       id="text399"
       style="white-space:pre;shape-inside:url(#rect401);display:inline;fill:#000000" />
    <path
       style="fill:#000000;stroke-width:0.264583"
       id="path520"
       d="m 127.2437,50.096724 c 0.31067,-0.146048 0.61491,-0.30666 0.93202,-0.438148 3.22078,-1.335439 6.62894,-2.213546 10.04431,-2.882336 0.97141,-0.19022 1.95042,-0.339331 2.92563,-0.508995 2.72982,-0.413745 5.47377,-0.720267 8.22238,-0.975109 0,0 -3.03185,-2.150059 -3.03185,-2.150059 v 0 c -2.65843,0.369371 -5.31301,0.765532 -7.96426,1.183415 -0.97348,0.176054 -1.9501,0.335513 -2.92043,0.528164 -3.88821,0.771969 -7.73433,1.790173 -11.48468,3.074289 0,0 3.27688,2.168779 3.27688,2.168779 z" />
    <path
       style="fill:#000000;stroke-width:0.264583"
       id="path522"
       d="m 146.47418,43.335207 c -1.12433,1.718532 -1.98018,3.603828 -2.8769,5.447813 -1.5006,3.136683 -3.14301,6.200851 -4.77743,9.268814 -1.4106,2.52326 -2.67556,5.121881 -3.75667,7.802187 -0.57913,1.569447 -1.23949,3.106176 -1.92864,4.629949 -0.40462,0.860536 -0.8156,1.717659 -1.21627,2.579973 0,0 3.41162,1.921783 3.41162,1.921783 v 0 c 0.37126,-0.877025 0.74245,-1.754109 1.14257,-2.618576 0.69146,-1.532906 1.37329,-3.072194 1.89229,-4.674082 0.23642,-0.635487 0.55121,-1.498745 0.80861,-2.115886 0.81769,-1.960517 1.77677,-3.859096 2.78897,-5.725229 1.63654,-3.069465 3.29351,-6.128125 4.85039,-9.239265 0.5205,-1.026502 0.73731,-1.472507 1.27726,-2.46823 0.44537,-0.82133 0.89953,-1.661744 1.46174,-2.411925 0.0929,-0.124 0.20093,-0.23595 0.3014,-0.353925 0,0 -3.37894,-2.043401 -3.37894,-2.043401 z" />
    <path
       style="fill:#000000;stroke-width:0.264583"
       id="path534"
       d="m 117.72525,50.462097 c -1.5502,0.927129 -3.27619,1.488618 -4.97403,2.076069 -0.30204,0.107929 -0.60408,0.215855 -0.90612,0.323784 0,0 3.15425,2.125123 3.15425,2.125123 v 0 c 0.29225,-0.111966 0.58451,-0.223936 0.87677,-0.335902 1.74171,-0.620122 3.50825,-1.192347 5.1552,-2.044192 0,0 -3.30607,-2.144882 -3.30607,-2.144882 z" />
    <path
       style="fill:#000000;stroke-width:0.264583"
       id="path536"
       d="m 116.64964,32.679515 c -0.208,2.080226 -0.94494,4.068011 -1.62169,6.031698 -0.18338,0.53984 -0.36923,1.07885 -0.55016,1.61952 -0.51102,1.527128 -0.64207,1.997395 -1.19412,3.53277 -0.67918,1.88895 -1.4319,3.748267 -2.19137,5.605849 -1.52722,3.686542 -3.12231,7.344073 -4.64784,11.031309 -0.80479,1.970786 -1.52936,3.973232 -2.16046,6.006143 -0.28669,1.024334 -0.49078,2.067933 -0.76473,3.095659 -0.26847,0.802 -0.4734,1.621496 -0.69158,2.437939 -0.0304,0.09079 -0.0609,0.181581 -0.0913,0.272371 0,0 3.45145,1.895747 3.45145,1.895747 v 0 c 0.0307,-0.09996 0.0615,-0.199911 0.0922,-0.299868 0.19674,-0.822987 0.40171,-1.642414 0.67064,-2.44539 0.26629,-1.030679 0.47332,-2.073267 0.71863,-3.108865 0.5597,-2.053781 1.20143,-4.084267 1.96422,-6.07269 1.44262,-3.722923 3.00221,-7.397647 4.57452,-11.067426 0.77908,-1.855914 1.53083,-3.718824 2.22902,-5.607026 0.77876,-2.106094 0.51011,-1.44953 1.23272,-3.512632 0.18765,-0.535763 0.38348,-1.068628 0.57522,-1.602941 0.72416,-1.964902 1.48833,-3.932404 1.908,-5.990278 0,0 -3.50335,-1.821889 -3.50335,-1.821889 z" />
    <path
       style="fill:#000000;stroke-width:0.264583"
       id="path538"
       d="m 106.50522,73.716181 c 1.52924,-0.737042 3.15691,-1.197893 4.79523,-1.618348 1.68057,-0.474747 3.41275,-0.736579 5.09442,-1.20428 0.64614,-0.156401 1.24188,-0.459759 1.81169,-0.795589 0.31069,-0.149995 0.1595,-0.06988 0.45385,-0.239861 0,0 -3.31091,-2.153266 -3.31091,-2.153266 v 0 c -0.28594,0.159808 -0.13601,0.07753 -0.45015,0.246187 -0.54601,0.31083 -1.11711,0.573733 -1.72542,0.739206 -1.63332,0.499737 -3.3074,0.848058 -4.95877,1.280993 -1.69897,0.425527 -3.37792,0.904251 -5.00657,1.554372 0,0 3.29663,2.190586 3.29663,2.190586 z" />
    <path
       style="fill:#000000;stroke-width:0.264583"
       id="path540"
       d="m 120.05641,34.678688 c 2.76238,-0.253635 5.50915,-0.649713 8.26023,-1.002487 5.34287,-0.639768 10.71505,-0.962726 16.08315,-1.300554 0.60266,-0.04306 1.20533,-0.08611 1.808,-0.12917 0,0 -2.95314,-2.109655 -2.95314,-2.109655 v 0 c -0.58812,0.05252 -1.17624,0.105037 -1.76435,0.157554 -5.33189,0.453723 -10.66851,0.854353 -15.99397,1.38127 -2.87292,0.288076 -5.75182,0.636085 -8.64156,0.676916 0,0 3.20164,2.326126 3.20164,2.326126 z" />
    <path
       style="fill:#000000;stroke-width:0.264583"
       id="path542"
       d="m 106.03477,72.799161 c 1.7452,-0.985824 3.6836,-1.504029 5.61434,-1.982806 2.52501,-0.623437 5.10264,-0.987274 7.66581,-1.410694 0.5737,-0.120759 1.16464,-0.153697 1.73266,-0.303853 0.30941,-0.0818 0.59079,-0.224425 0.87791,-0.361297 0.63787,-0.340172 1.31957,-0.568126 1.99538,-0.815364 0.42622,-0.123684 0.83622,-0.299251 1.27602,-0.369234 0.95164,-0.275108 1.93184,-0.399766 2.91292,-0.52166 0,0 -3.13619,-2.21982 -3.13619,-2.21982 v 0 c -1.01484,0.126312 -2.03076,0.241758 -3.02627,0.482391 -0.43916,0.113591 -0.86389,0.277501 -1.29112,0.428742 -0.68174,0.254913 -1.35183,0.536165 -2.01371,0.839322 -0.78183,0.345434 -1.60938,0.507402 -2.44959,0.656169 -2.52925,0.491741 -5.07773,0.891556 -7.58408,1.495679 -2.00971,0.482298 -4.01112,1.018423 -5.87882,1.924889 0,0 3.30474,2.157536 3.30474,2.157536 z" />
    <path
       style="fill:#000000;stroke-width:0.264583"
       id="path544"
       d="m 117.18303,69.634792 c 0.96182,-0.362484 1.97034,-0.563771 2.9737,-0.771244 1.05009,-0.20588 2.05757,-0.5696 3.09983,-0.805466 0.26437,-0.04967 0.50405,-0.110651 0.77391,-0.106762 0.0696,0.0011 0.26603,0.06989 0.20589,0.03484 -1.113,-0.648586 -2.26339,-1.231633 -3.37543,-1.881854 -0.0343,-0.02008 0.002,-0.120693 -0.037,-0.113414 -0.15084,0.02809 -0.27711,0.13181 -0.41566,0.197715 -2.29848,0.961509 -4.7973,1.314252 -7.24335,1.693212 -1.19161,0.120727 -2.36989,0.427979 -3.57093,0.468593 -0.13024,0.0044 -0.49698,-0.108469 -0.38937,-0.03497 3.28239,2.242076 2.16353,2.518039 3.81451,1.922761 2.12802,-0.725702 4.31214,-1.281726 6.5001,-1.794782 1.15772,-0.216316 2.28351,-0.56582 3.41639,-0.881031 0.51405,-0.137957 1.04117,-0.202486 1.56255,-0.301961 0.26109,-0.02114 0.53277,-0.105365 0.79695,-0.08466 0.0454,0.0035 0.17117,0.05871 0.13159,0.03627 -1.11952,-0.634892 -2.24992,-1.250384 -3.37488,-1.875576 0.0169,-0.03555 0.0896,-0.113194 0.0508,-0.106643 -0.13531,0.02283 -0.25273,0.106961 -0.37846,0.161917 -0.25659,0.112157 -0.50839,0.235598 -0.76846,0.339416 -1.19747,0.478012 -2.44009,0.838946 -3.67008,1.220702 -2.47395,0.721882 -4.95807,1.408946 -7.45691,2.039406 -0.0713,0.01659 -1.5001,0.351883 -1.67675,0.381722 -1.38511,0.233966 -5.18311,-0.799647 3.34437,2.01117 0.38421,0.126643 0.77368,-0.237548 1.16505,-0.339945 0.5728,-0.149862 1.15111,-0.277751 1.72667,-0.416626 3.33817,-0.728792 6.66818,-1.490842 9.96126,-2.403663 1.16098,-0.240472 2.24673,-0.74576 3.40505,-0.990139 0.12658,-0.03493 0.3398,-0.107334 0.48387,-0.104225 0.0462,0.0011 0.0894,0.0232 0.13417,0.0348 -1.12625,-0.652166 -2.23248,-1.340202 -3.37875,-1.956498 -0.0366,-0.01966 -0.0442,0.07138 -0.0742,0.09998 -0.079,0.07509 -0.16748,0.139544 -0.25122,0.209315 -1.46417,1.199015 -3.34055,1.571051 -5.14028,1.966235 -2.39873,0.468151 -4.82484,0.770009 -7.23433,1.173657 -0.67164,0.08745 -1.31118,0.338336 -1.98619,0.401347 0,0 3.26898,2.272199 3.26898,2.272199 v 0 c 0.6021,-0.219681 1.24139,-0.332685 1.86463,-0.47108 2.36831,-0.453848 4.74487,-0.859846 7.12164,-1.26683 1.90185,-0.390462 3.86091,-0.777243 5.43175,-1.997681 0.10887,-0.09227 0.22858,-0.173091 0.32661,-0.276797 0.0793,-0.08394 0.2923,-0.210502 0.2015,-0.281892 -2.73803,-2.152788 -2.25326,-2.545022 -4.00242,-2.034672 -1.10959,0.313877 -2.15636,0.821306 -3.27946,1.096356 -3.22965,0.999543 -6.50388,1.844723 -9.82945,2.463578 -0.60921,0.121343 -1.22007,0.23472 -1.82763,0.364027 -0.435,0.09257 -1.49286,-0.09905 -1.29969,0.30154 1.45118,3.009329 1.98496,2.605614 3.73818,2.141932 0.30427,-0.08047 0.609,-0.159205 0.9135,-0.238805 2.47892,-0.659757 4.94318,-1.371957 7.40472,-2.093545 1.26878,-0.37511 2.54437,-0.737693 3.79102,-1.183052 0.27777,-0.09923 1.13648,-0.39869 1.41406,-0.644687 0.0992,-0.08788 0.12404,-0.234177 0.18606,-0.351266 -3.14217,-1.795058 -2.43843,-2.251795 -4.47686,-1.860074 -0.52027,0.102981 -1.04621,0.181936 -1.55013,0.355013 -1.09737,0.337947 -2.19734,0.668946 -3.3156,0.93236 -2.19989,0.593854 -4.40462,1.171395 -6.59722,1.790837 -1.75868,0.753028 -1.03982,0.243081 2.59418,2.538786 0.0955,0.06034 0.22331,-0.03451 0.33478,-0.05294 2.05344,-0.339426 -0.78403,0.124071 1.96653,-0.337669 0.48905,-0.0821 0.97888,-0.159546 1.46833,-0.239318 2.52586,-0.395449 5.10544,-0.71474 7.50171,-1.649111 0.41969,-0.199213 1.10355,-0.475327 0.86382,-0.662366 -2.50564,-1.95499 -2.54749,-2.289389 -4.47268,-1.832248 -1.02646,0.261882 -2.03087,0.606809 -3.07256,0.809131 -1.02618,0.212481 -2.04444,0.452559 -3.05018,0.747974 0,0 3.25751,2.236692 3.25751,2.236692 z" />
    <path
       style="fill:#000000;stroke-width:0.264583"
       id="path546"
       d="m 112.0358,56.98087 c 1.60559,-0.8938 3.28361,-1.645738 4.94783,-2.421615 1.43905,-0.727289 2.92841,-1.346571 4.38643,-2.032884 0.35615,-0.163375 0.7169,-0.315505 1.07327,-0.478356 0,0 -3.27358,-2.168123 -3.27358,-2.168123 v 0 c -0.3514,0.164682 -0.70671,0.321477 -1.04987,0.503153 -1.41648,0.714346 -2.85191,1.391351 -4.27154,2.099453 -1.71012,0.783349 -3.42061,1.565778 -5.12921,2.352421 0,0 3.31667,2.145951 3.31667,2.145951 z" />
    <path
       style="fill:#000000;stroke-width:0.264583"
       id="path548"
       d="m 126.36679,48.985188 c 1.82853,-0.565822 3.68815,-1.019535 5.55144,-1.453594 1.97108,-0.475028 3.9115,-1.062657 5.89977,-1.462765 1.87395,-0.298077 3.7676,-0.434404 5.64981,-0.677947 1.38669,-0.218094 2.78604,-0.360273 4.14766,-0.710393 0.73769,-0.179586 1.44399,-0.475758 2.12808,-0.801386 0.73297,-0.330589 1.46928,-0.654667 2.21157,-0.963756 -0.31941,-0.77621 0.51105,0.08579 0.39722,0.01791 -1.14685,-0.684054 -2.22406,-1.490774 -3.41615,-2.092521 -0.12198,-0.06157 -0.24149,0.128529 -0.36682,0.182946 -0.64382,0.279543 -0.92674,0.3552 -1.63164,0.592354 -3.21442,0.84641 -6.51608,1.305404 -9.79552,1.822374 -1.64491,0.291084 -3.38154,0.486447 -4.86364,1.313828 -0.29952,0.272809 -0.91377,0.462375 -1.13453,0.808887 -0.0499,0.07834 -0.0726,0.171016 -0.10888,0.256524 1.23654,0.611984 2.40719,1.380741 3.70964,1.835946 0.217,0.07584 0.40327,-0.220834 0.60703,-0.327268 1.20883,-0.631442 2.44811,-1.208003 3.67177,-1.810412 1.46898,-0.733943 3.01703,-1.264838 4.57534,-1.768244 1.26944,-0.413383 2.51237,-0.906595 3.75582,-1.392074 0.85113,-0.292732 1.65005,-0.70381 2.45748,-1.093867 0.12111,-0.06144 0.86737,-0.447005 0.97008,-0.407823 0.0303,0.01154 0.0107,0.0639 0.0161,0.09585 -1.12381,-0.693959 -2.21286,-1.447673 -3.37144,-2.081876 -0.0637,-0.03486 -0.1048,0.100555 -0.15817,0.149791 -0.11872,0.109516 -0.23185,0.225679 -0.35809,0.326443 -0.70767,0.564909 -1.49977,0.933048 -2.31265,1.319795 -2.87122,1.265216 -5.90795,2.093063 -8.9276,2.91819 -1.41727,0.407061 -2.84284,0.795123 -4.22407,1.315571 -0.0955,0.03599 -1.39171,0.554972 -1.51395,0.603864 -0.93054,0.395711 -1.82029,0.877922 -2.67373,1.418675 -0.0343,0.0098 -0.13295,0.01035 -0.10287,0.02952 1.13275,0.72204 2.24062,1.494502 3.4407,2.098075 0.11214,0.0564 0.2075,-0.141364 0.31225,-0.21054 0.76685,-0.506383 1.56158,-0.954844 2.36138,-1.407115 2.85861,-1.53639 5.89071,-2.708219 8.93052,-3.828542 0.43601,-0.156114 0.87191,-0.312539 1.30803,-0.468349 0.8884,-0.317389 1.24973,-0.431544 2.11016,-0.788276 0.99765,-0.413618 1.96866,-0.883169 2.93704,-1.359966 0.60094,-0.292029 1.1924,-0.606391 1.81562,-0.849927 0.3448,-0.134739 0.69754,-0.239238 1.03985,-0.38092 0.18514,-0.04765 0.39057,-0.214117 0.59537,-0.175911 0.0731,0.01365 0.19847,0.215154 0.13356,0.178805 -1.11814,-0.626152 -2.2072,-1.302863 -3.3108,-1.954294 0.27572,0.299707 0.2721,0.695444 0.30236,1.08113 0.1161,1.37899 -0.29872,2.705907 -0.74453,3.99111 -0.79379,2.21615 -1.80784,4.344386 -2.92334,6.414444 -0.75511,1.407917 -1.5613,2.789095 -2.43423,4.127286 -0.0598,0.07332 -0.0987,0.170733 -0.17949,0.219974 -0.0293,0.01789 -0.0444,-0.117898 -0.0139,-0.102118 1.16055,0.600146 2.23164,1.383154 3.4421,1.874906 0.13638,0.05541 0.0998,-0.277138 0.15689,-0.412808 0.24063,-0.571458 0.42352,-0.924767 0.70299,-1.499759 0.72633,-1.474676 1.53804,-2.907115 2.22165,-4.403027 0.46199,-1.010935 0.49153,-1.147884 0.86663,-2.165154 0.28885,-0.892029 0.55546,-1.790816 0.82422,-2.688979 0.0617,-0.206155 0.1209,-0.41312 0.18797,-0.617587 0.12951,-0.394814 0.10454,-0.462865 0.14067,-0.287158 -1.177,-0.558131 -2.281,-1.307857 -3.53099,-1.674392 -0.19616,-0.05752 -0.10809,0.394899 -0.18036,0.586105 -0.10236,0.270767 -0.22492,0.533503 -0.3428,0.797878 -0.48853,1.095602 -1.02554,2.169316 -1.53884,3.25339 -0.92822,1.890835 -1.71146,3.853993 -2.70849,5.711376 -0.19185,0.357415 -0.40153,0.704979 -0.60229,1.057468 -1.26025,2.120053 -2.4762,4.264715 -3.64165,6.438246 -0.8806,1.592773 -1.68423,3.221728 -2.4414,4.875969 -0.55568,1.191586 -1.06546,2.401745 -1.55158,3.622972 -0.30215,0.810598 -0.59874,1.619517 -0.94827,2.410949 -0.17991,0.410938 -0.33535,0.831567 -0.51819,1.240965 -0.0896,0.127878 -0.0692,0.465373 -0.25113,0.506058 0,0 3.37532,2.110041 3.37532,2.110041 v 0 c 0.17698,-0.198432 0.26691,-0.417031 0.33254,-0.672745 0.17484,-0.415436 0.32296,-0.840852 0.48972,-1.259825 0.33114,-0.806018 0.62137,-1.624078 0.91156,-2.445723 0.46529,-1.224153 0.96086,-2.43409 1.50726,-3.624514 0.7358,-1.656247 1.50061,-3.297708 2.3541,-4.897609 1.14428,-2.181188 2.36377,-4.319561 3.62738,-6.433804 0.2032,-0.358177 0.41518,-0.711513 0.6096,-1.074526 0.99694,-1.861389 1.76864,-3.831532 2.70233,-5.723507 0.65552,-1.346573 1.37693,-2.662433 2.02049,-4.014393 0.0897,-0.188455 0.40218,-0.434189 0.24805,-0.574923 -0.99538,-0.90886 -2.23537,-1.506781 -3.35305,-2.260172 -0.29298,1.283359 -0.62857,2.555396 -1.02102,3.812527 -0.34218,0.991492 -0.37832,1.165357 -0.8186,2.146231 -0.67187,1.496822 -1.48729,2.924138 -2.27637,4.360458 -0.31147,0.571664 -0.49834,0.912085 -0.79625,1.467347 -0.0776,0.144688 -0.35496,0.32698 -0.23124,0.434946 2.69445,2.351445 2.7053,3.357015 3.59625,1.861677 0.78925,-1.397209 1.59532,-2.785028 2.3318,-4.211428 1.10239,-2.095408 2.10343,-4.242427 2.97416,-6.445094 0.50529,-1.29876 0.96745,-2.653469 0.93081,-4.06668 -0.006,-0.415214 0.0436,-0.889003 -0.15848,-1.266439 -2.76923,-1.714249 -2.49043,-2.658054 -4.34241,-1.816399 -0.94276,0.395068 -1.87691,0.800508 -2.75591,1.330161 -0.77913,0.401122 -1.0144,0.535787 -1.84049,0.901361 -1.43995,0.637218 -2.92531,1.167482 -4.38585,1.753868 -3.04744,1.181168 -6.10737,2.349807 -9.02878,3.823623 -0.97269,0.505127 -1.00756,0.518078 -1.90377,1.000921 -0.20136,0.108485 -0.40068,0.220721 -0.60237,0.328592 -0.12044,0.06442 -0.46837,0.100182 -0.36397,0.188248 2.96528,2.50122 2.23622,3.061613 3.32198,2.152092 0.79636,-0.557059 1.6542,-1.019826 2.54378,-1.410237 1.82884,-0.753007 3.68423,-1.430396 5.58915,-1.969601 3.03814,-0.878046 6.09681,-1.72476 9.02842,-2.922214 0.86971,-0.393161 1.69844,-0.778841 2.47612,-1.337088 0.14092,-0.101158 0.27646,-0.209942 0.40826,-0.322718 0.09,-0.07698 0.34696,-0.169682 0.25636,-0.245932 -1.01695,-0.855864 -2.17754,-1.524823 -3.26632,-2.287233 -0.33919,0.223842 -0.75843,0.313428 -1.09558,0.547179 -0.76946,0.414076 -1.55108,0.804601 -2.37377,1.104895 -1.23379,0.495419 -2.4815,0.95441 -3.74265,1.375651 -1.5482,0.535664 -3.08605,1.099603 -4.54532,1.852633 -1.22398,0.617916 -2.45156,1.236054 -3.71832,1.763271 -0.21691,0.09028 -0.83478,0.09206 -0.65955,0.248563 0.93884,0.838512 2.12924,1.343281 3.19386,2.014923 -0.0503,0.05821 -0.11009,0.109453 -0.151,0.174639 -0.0275,0.04382 0.0705,-0.07606 0.11008,-0.109435 0.0576,-0.04863 0.11902,-0.09274 0.18077,-0.136025 0.24547,-0.172074 0.50467,-0.324609 0.74887,-0.498641 1.39546,-0.795182 3.02806,-1.030182 4.57877,-1.347444 1.16225,-0.205957 2.24034,-0.401397 3.40956,-0.589169 2.1823,-0.350472 4.37734,-0.651055 6.52087,-1.2056 0.51542,-0.157951 1.2463,-0.363572 1.7602,-0.582118 0.16675,-0.07092 0.61089,-0.125701 0.48143,-0.2525 -2.96121,-2.900404 -2.01219,-2.802498 -3.59875,-2.160516 -0.74922,0.317143 -1.51338,0.599991 -2.24355,0.960337 -0.66711,0.302877 -1.35327,0.572146 -2.06305,0.757346 -1.3267,0.333748 -2.68519,0.518163 -4.03501,0.731705 -1.88975,0.237266 -3.79814,0.337077 -5.66945,0.700839 -1.97929,0.428639 -3.92441,0.991722 -5.88877,1.482625 -1.89652,0.456414 -3.78736,0.936191 -5.68866,1.372137 0,0 3.2418,2.228601 3.2418,2.228601 z" />
    <path
       style="fill:#000000;stroke-width:0.264583"
       id="path550"
       d="m 116.7178,36.640222 c 3.61121,-0.980181 7.19007,-2.074259 10.75329,-3.216169 0.50531,-0.166167 1.01164,-0.329264 1.51593,-0.498496 1.07497,-0.360741 1.62186,-0.573138 2.70368,-0.901814 1.52906,-0.464556 3.07608,-0.815438 4.63798,-1.147638 1.32046,-0.255479 2.64884,-0.469924 3.98339,-0.636948 0.81884,-0.102481 1.63549,-0.168571 2.45247,-0.286726 1.86819,-0.281728 3.74622,-0.507185 5.60808,-0.829313 2.16829,-0.51263 1.94699,-0.541602 -2.56655,-2.385504 -0.22963,-0.09381 -0.44766,0.213812 -0.67185,0.319966 -0.34236,0.162107 -0.68519,0.323212 -1.02779,0.484817 -4.99954,2.235306 -10.2835,3.752136 -15.54437,5.232384 -2.78807,0.795679 -5.60961,1.462826 -8.42445,2.154277 -0.51059,0.125426 -2.90455,0.734367 -3.60603,0.874059 -0.28176,0.05611 -0.56926,0.07814 -0.85388,0.117205 1.19638,0.649793 2.25751,1.665978 3.58914,1.949382 0.65025,0.13839 1.21242,-0.546683 1.82857,-0.796362 0.96003,-0.389025 1.93205,-0.747771 2.89896,-1.119343 3.15242,-1.21143 6.31538,-2.382798 9.49569,-3.518684 2.72068,-1.018635 5.52751,-1.750673 8.39291,-2.215144 0.60973,-0.09884 1.21934,-0.203737 1.83389,-0.265917 0.47881,-0.04845 0.96151,-0.04371 1.44227,-0.06557 0.32008,0.04419 1.22512,0.317622 0.96025,0.132556 -0.92932,-0.649314 -1.97237,-1.12962 -3.01714,-1.569709 -0.0869,-0.03659 -0.0922,0.170344 -0.16611,0.228833 -0.24787,0.196151 -0.51062,0.37615 -0.78859,0.526655 -1.12652,0.609973 -2.06038,0.899769 -3.28544,1.357133 -0.77217,0.254598 -1.54271,0.514167 -2.3165,0.763797 -1.37864,0.444756 -3.70345,1.158943 -5.07339,1.610497 -2.1837,0.719786 -4.34908,1.495727 -6.51322,2.271805 2.2477,1.306997 -2.33498,0.06594 -1.81283,0.39773 1.1334,0.720193 2.25323,1.546521 3.5448,1.91412 0.39939,0.113673 0.72185,-0.411898 1.0953,-0.593471 2.13745,-1.039244 2.77504,-1.230982 5.16291,-2.176722 3.38193,-1.233511 6.76833,-2.456021 10.18029,-3.604524 1.38901,-0.467559 2.99927,-1.006542 4.43832,-1.391029 0.40127,-0.107214 0.8101,-0.183853 1.21516,-0.27578 0.18874,-0.0013 0.72774,0.09404 0.56623,-0.0036 -1.15581,-0.698892 -2.30021,-1.513348 -3.61137,-1.837698 -0.41819,-0.103449 -0.7267,0.46405 -1.10447,0.671116 -2.75525,1.510244 -5.64724,2.684676 -8.5482,3.878937 -5.74228,2.319152 -11.6063,4.312581 -17.45156,6.351032 -1.20101,0.397634 -2.39869,0.87834 -3.66613,1.02462 -1.65742,0.191288 0.3514,-0.09018 -0.89149,0.007 -0.10373,0.0081 -0.20349,0.04348 -0.30524,0.06522 -0.26942,0.129927 -0.48797,0.333309 -0.72148,0.515221 -0.0281,0.02188 -0.11484,0.04716 -0.0843,0.06554 3.506,2.112751 2.52986,2.905361 3.72995,1.741763 0.15197,-0.124341 0.301,-0.252381 0.45592,-0.373023 0.55963,-0.435779 1.13632,-0.849207 1.70103,-1.278379 0.76029,-0.577808 1.78971,-1.396799 2.56578,-1.922495 0.5466,-0.370252 1.11662,-0.704693 1.67493,-1.057042 3.77719,-2.184244 7.9963,-3.368111 12.15613,-4.579678 1.73659,-0.492977 3.44564,-1.07487 5.16697,-1.617149 0.99913,-0.314762 0.55455,-0.212995 1.35783,-0.355465 -1.11381,-0.583753 -2.22762,-1.167506 -3.34143,-1.751259 -0.0516,-0.02442 -0.10174,-0.09437 -0.15475,-0.07324 -0.28439,0.113369 -0.52503,0.316264 -0.79878,0.45335 -0.4657,0.233207 -0.93699,0.456436 -1.41779,0.656646 -1.95333,0.813385 -2.6862,0.996698 -4.80782,1.683909 -3.19978,0.999553 -6.42282,1.921867 -9.64212,2.85578 -1.7407,0.504973 -3.47418,1.03673 -5.23211,1.478473 -0.0938,-0.01558 -0.18759,-0.03115 -0.28139,-0.04673 1.28641,0.660387 2.46025,1.615358 3.85923,1.981163 0.51811,0.135474 0.99566,-0.395018 1.49811,-0.580327 0.80972,-0.29864 1.62232,-0.589621 2.43806,-0.871402 1.72199,-0.594831 5.0674,-1.692571 6.7369,-2.243926 3.0063,-0.97563 6.0302,-1.895478 9.04479,-2.844758 1.22846,-0.386836 2.44699,-0.794975 3.6899,-1.132673 1.40489,0.157255 5.30293,0.612307 -3.70494,-1.935427 -0.41901,-0.118512 -0.79406,0.358201 -1.19767,0.521639 -0.58255,0.2359 -1.16985,0.460222 -1.76011,0.676093 -2.22059,0.812125 -2.53384,0.881816 -4.86418,1.620197 -4.11983,1.311817 -8.3803,2.052066 -12.61767,2.858804 -0.88371,0.14428 -1.75588,0.397788 -2.6566,0.381315 0,0 3.18977,2.289794 3.18977,2.289794 v 0 c 0.85585,-0.114609 1.68649,-0.355097 2.52826,-0.542168 4.14664,-0.954418 8.32158,-1.802403 12.39391,-3.053085 2.20154,-0.661374 2.874,-0.851094 5.01137,-1.538793 0.62315,-0.200496 1.24364,-0.40921 1.86434,-0.617165 0.43939,-0.147211 1.50462,-0.02511 1.3159,-0.448323 -1.52002,-3.408815 -1.72755,-3.185499 -2.70402,-2.378736 -3.95317,1.735486 -8.10265,2.982211 -12.196,4.332282 -4.02329,1.257472 -3.03907,0.968494 -6.92832,2.114505 -0.86845,0.255899 -1.73778,0.508857 -2.60759,0.760082 -0.55699,0.160872 -1.84147,-0.07848 -1.67282,0.476202 1.03566,3.406172 1.63021,2.989641 2.74896,2.352508 4.75157,-1.814891 9.65041,-3.211803 14.5535,-4.550502 2.22695,-0.645486 4.45775,-1.262222 6.59553,-2.172185 0.31338,-0.133394 0.64192,-0.247086 0.92123,-0.441986 0.22316,-0.155715 0.77144,-0.419526 0.56147,-0.592608 -1.03888,-0.856348 -2.38042,-1.25857 -3.57063,-1.887853 -2.10859,0.700088 -4.18657,1.495132 -6.31432,2.139477 -4.14275,1.318387 -8.36152,2.539293 -12.17396,4.679248 -0.57806,0.349192 -1.16657,0.681631 -1.73417,1.047573 -0.78341,0.505084 -1.87158,1.321168 -2.65358,1.866434 -1.83164,1.277152 -0.27728,0.163113 -1.8173,1.220449 -0.17306,0.118819 -0.34074,0.245298 -0.51111,0.367948 -1.33478,1.063075 -0.47471,0.217739 2.99189,2.419827 0.0181,0.01148 0.0226,-0.03714 0.0385,-0.05148 0.0853,-0.07676 0.28397,-0.229288 0.38441,-0.279382 0.069,-0.03439 0.14556,-0.05056 0.21834,-0.07585 0.37645,-0.04237 0.75085,-0.06093 1.12153,-0.149392 1.19089,-0.284189 2.30963,-0.803161 3.45079,-1.23146 5.72781,-2.201268 11.51078,-4.258144 17.2143,-6.523636 3.11319,-1.229794 3.49775,-1.3653 6.51109,-2.617158 0.81915,-0.340304 1.64107,-0.674592 2.45091,-1.036484 0.44156,-0.197318 1.51995,-0.208833 1.30188,-0.640519 -1.50544,-2.980145 -1.85086,-2.745129 -3.35785,-2.342316 -1.78548,0.602929 -3.54288,1.274889 -5.30976,1.930339 -3.3757,1.252267 -6.76042,2.481564 -10.1799,3.610163 -1.89726,0.658931 -3.66472,1.245568 -5.52079,1.977847 -0.44415,0.175236 -1.54636,0.151117 -1.31472,0.568643 1.81702,3.27516 2.57971,2.600827 4.59264,1.779635 1.62898,-0.65718 2.12715,-0.875274 3.87003,-1.497108 3.29212,-1.174578 6.65281,-2.13696 9.99144,-3.166962 1.15527,-0.387879 2.41468,-0.753136 3.51381,-1.311034 0.33894,-0.172043 0.68554,-0.351676 0.96146,-0.613114 1.84789,-1.750938 -2.49818,-3.058586 -4.1488,-2.905865 -0.46232,0.04678 -0.92646,0.07815 -1.38695,0.14034 -3.45929,0.467188 -6.85148,1.308362 -10.0705,2.675443 -3.14042,1.215501 -6.27598,2.445022 -9.46336,3.534209 -1.02183,0.349175 -2.0517,0.674523 -3.08137,0.999855 -0.71494,0.22589 -2.31674,-0.07776 -2.15224,0.653745 0.27023,1.201619 1.88851,1.581521 2.83276,2.372281 1.39092,-0.406969 2.77754,-0.824526 4.17567,-1.207079 2.76048,-0.755317 5.53566,-1.457712 8.28273,-2.262058 5.36356,-1.514105 10.74935,-3.007699 15.95528,-5.01164 0.36461,-0.14429 0.7271,-0.29406 1.09384,-0.432871 0.23681,-0.08964 0.88036,-0.05931 0.7165,-0.252352 -2.50656,-2.952898 -1.95494,-2.502474 -3.84425,-2.034244 -1.83885,0.362773 -3.69487,0.635802 -5.55802,0.838841 -2.1215,0.24076 -4.22394,0.606792 -6.31355,1.046244 -1.58288,0.334373 -3.15838,0.675635 -4.70745,1.147707 -0.97442,0.29695 -1.72194,0.579049 -2.67941,0.925756 -0.48731,0.176461 -0.97435,0.353684 -1.46152,0.530529 -3.59184,1.244963 -7.23268,2.414294 -11.00001,2.996097 0,0 3.23494,2.247551 3.23494,2.247551 z" />
    <path
       style="fill:#000000;stroke-width:0.264583"
       id="path552"
       d="m 115.73747,32.752747 c -0.74498,3.10878 -2.01267,6.063292 -3.26234,8.995454 -1.7351,3.762018 -3.34694,7.578397 -5.02605,11.364979 -0.24581,0.535752 -0.48663,1.073822 -0.73743,1.607259 -0.0792,0.168365 -1.21425,2.515478 -1.33872,2.764806 -0.39156,0.784299 -0.79144,1.555374 -1.27841,2.2841 -0.0589,0.06504 -0.11776,0.130077 -0.17665,0.195117 0,0 3.39368,2.005761 3.39368,2.005761 v 0 c 0.0503,-0.08614 0.10065,-0.172286 0.15098,-0.258426 1.09168,-2.253948 2.10628,-4.544729 3.13568,-6.82743 2.1374,-4.989925 -0.70755,1.673349 1.49559,-3.560067 1.10868,-2.633585 2.31567,-5.223721 3.49087,-7.827869 1.28827,-2.917722 2.52891,-5.856137 3.59726,-8.862666 0,0 -3.44446,-1.881018 -3.44446,-1.881018 z" />
    <path
       style="fill:#000000;stroke-width:0.264583"
       id="path554"
       d="m 115.07802,32.4286 c -0.49408,2.041967 -1.07249,4.061727 -1.6932,6.068439 -0.78957,2.460394 -1.74414,4.863012 -2.63024,7.289159 -0.27991,0.766408 -1.2388,3.462417 -1.50574,4.211593 -1.09786,3.05109 -2.21665,6.096365 -3.48385,9.082113 -0.64096,1.510208 -0.90428,2.046732 -1.5715,3.480041 -0.73726,1.545685 -1.49742,3.081399 -2.20761,4.639898 -0.25394,0.513992 -0.50599,1.026231 -0.72098,1.557694 -0.19894,0.516446 -0.39355,1.035704 -0.60254,1.548252 -0.15291,0.369522 -0.26111,0.752136 -0.40614,1.124505 -0.1205,0.337291 -0.264689,0.665721 -0.397542,0.998535 -0.04701,0.147241 -0.127363,0.253622 -0.237916,0.356103 0,0 3.389058,2.061575 3.389058,2.061575 v 0 c 0.12729,-0.148786 0.24439,-0.298643 0.31119,-0.48618 0.13059,-0.334327 0.27616,-0.663072 0.39213,-1.002667 0.14703,-0.372264 0.26835,-0.7483 0.39794,-1.126784 0.20032,-0.514736 0.39212,-1.032343 0.59334,-1.546849 0.22391,-0.526246 0.46285,-1.04529 0.68806,-1.570967 0.64125,-1.595728 1.28897,-3.189247 1.97142,-4.767889 1.74807,-4.175929 3.40187,-8.391371 4.97364,-12.636783 0.41478,-1.141846 1.10277,-3.045201 1.53218,-4.19078 0.90674,-2.418977 1.89132,-4.808985 2.73399,-7.251766 0.66435,-1.974856 1.26215,-3.971147 1.94491,-5.939507 0,0 -3.4706,-1.897735 -3.4706,-1.897735 z" />
    <path
       style="fill:#000000;stroke-width:0.264583"
       id="path556"
       d="m 103.1011,74.457787 c 0.27604,-0.118957 0.5466,-0.251537 0.82813,-0.35687 1.65727,-0.620081 3.38445,-1.042932 5.0957,-1.480635 1.98273,-0.50714 1.75139,-0.44418 3.65636,-0.89888 2.86819,-0.647652 5.73082,-1.317902 8.60029,-1.960149 2.07248,-0.444797 1.08391,-0.235093 2.96544,-0.63037 0,0 -3.05896,-2.119572 -3.05896,-2.119572 v 0 c -1.81647,0.446196 -0.85596,0.216419 -2.88253,0.685189 -1.91611,0.418975 -1.63719,0.368189 -3.54934,0.745998 -0.5092,0.100608 -1.02185,0.184182 -1.52892,0.295029 -1.19016,0.260175 -2.35167,0.649171 -3.5395,0.918982 -1.00537,0.262591 -2.62567,0.687748 -3.60585,0.935122 -2.0881,0.526998 -4.20552,0.975813 -6.235651,1.705515 0,0 3.254831,2.160641 3.254831,2.160641 z" />
    <path
       style="fill:#000000;stroke-width:0.264583"
       id="path558"
       d="m 118.65314,47.922423 c -1.39747,1.409806 -3.14487,2.425104 -4.82774,3.453156 -0.36554,0.225952 -0.73107,0.451906 -1.0966,0.67786 0,0 3.14035,2.02193 3.14035,2.02193 v 0 c 0.35678,-0.229679 0.71355,-0.459356 1.07033,-0.689033 1.73546,-1.066615 3.53751,-2.062546 5.0883,-3.395933 0,0 -3.37464,-2.06798 -3.37464,-2.06798 z" />
    <path
       style="fill:#000000;stroke-width:0.264583"
       id="path560"
       d="m 118.74704,49.051273 c -2.01737,1.106249 -4.15285,1.973125 -6.24548,2.922011 -0.65825,0.298481 -1.31156,0.607771 -1.96734,0.911658 -0.60635,0.297231 -1.2127,0.594461 -1.81905,0.891691 0,0 2.99322,1.97045 2.99322,1.97045 v 0 c 0.5953,-0.30004 1.1906,-0.600077 1.7859,-0.900115 0.65872,-0.298601 1.31311,-0.606928 1.97615,-0.8958 2.1708,-0.945777 4.39088,-1.775521 6.56048,-2.724483 0,0 -3.28388,-2.175412 -3.28388,-2.175412 z" />
    <path
       style="fill:#000000;stroke-width:0.264583"
       id="path562"
       d="m 109.71737,70.743719 c 0.21797,-0.172542 0.42553,-0.359116 0.65391,-0.517628 1.74841,-1.213527 3.6818,-2.110936 5.65963,-2.881328 2.43834,-0.949767 4.69461,-1.640131 7.18762,-2.449137 2.45583,-0.756322 4.07602,-1.276921 6.50644,-1.94918 0.77395,-0.214077 1.54518,-0.443489 2.33158,-0.606004 0.51008,-0.105416 1.02945,-0.186595 1.55023,-0.196202 0.26122,-0.0048 0.99265,0.287843 0.76862,0.153421 -1.05043,-0.630272 -2.18596,-1.106429 -3.27894,-1.659644 -0.1606,0.158779 -0.3049,0.335971 -0.48182,0.476338 -0.86304,0.684712 -1.75629,1.199956 -2.74236,1.704168 -2.25064,1.150831 -4.61843,1.986983 -6.99189,2.839709 -3.07972,1.067684 -6.23428,1.892186 -9.36226,2.800969 -3.21309,0.933511 -0.006,0.02852 -2.49767,0.726805 -0.17478,0.03605 -0.66691,7.94e-4 -0.52433,0.108151 1.0532,0.792824 2.17796,1.514973 3.38489,2.045198 0.19951,0.08765 0.38575,-0.202854 0.57885,-0.303856 0.42025,-0.219818 0.83787,-0.444764 1.2612,-0.658598 1.58199,-0.799092 2.48948,-1.216893 4.14018,-2.001721 3.44348,-1.583717 6.73763,-3.467193 10.15699,-5.098299 0.71541,-0.267911 1.35039,-0.722992 2.05511,-1.012285 0.1184,-0.04861 0.24214,-0.09179 0.36952,-0.104378 0.079,-0.0078 0.30299,0.08369 0.23384,0.04475 -1.07732,-0.606679 -2.17898,-1.169101 -3.26847,-1.753653 0.0345,0.03421 0.0941,0.05496 0.10358,0.102637 0.0571,0.288393 -0.41345,0.90978 -0.546,1.093877 -0.49294,0.68467 -0.48739,0.62951 -1.11076,1.277829 -1.2894,1.222161 -2.89347,1.999673 -4.48587,2.743264 -0.59518,0.277929 -2.10403,0.954169 -2.72663,1.234196 -1.32554,0.551614 -2.63226,1.154975 -3.97181,1.672995 -2.74308,1.060786 1.02549,-0.450157 -1.5392,0.585674 -0.21586,0.08437 -0.43398,0.163197 -0.64759,0.253119 -0.62328,0.262371 -0.48661,0.241165 -1.1052,0.511868 -0.65212,0.285369 -1.32653,0.517771 -1.9973,0.754113 -0.96817,0.307319 -1.88952,0.73488 -2.83014,1.11144 -0.60694,0.314349 -1.18371,0.677251 -1.80071,0.971741 -0.6867,0.288107 -1.32533,0.666945 -1.9768,1.023815 -0.077,0.03087 -0.14979,0.07602 -0.2311,0.0926 -0.0466,0.0095 -0.0946,-0.01103 -0.14183,-0.01656 1.13017,0.628565 2.23414,1.306753 3.39051,1.885696 0.0544,0.02723 -0.002,-0.123005 0.0124,-0.182034 0.0361,-0.145737 0.24515,-0.692843 0.28736,-0.806172 0.10338,-0.206901 0.37482,-1.209265 0.62886,-1.254532 0,0 -3.37535,-2.103607 -3.37535,-2.103607 v 0 c -0.33824,0.418264 -0.46032,0.970597 -0.6634,1.458714 -0.0362,0.08977 -0.4766,1.150538 -0.46861,1.156443 2.63485,1.946455 2.36208,2.717972 3.85783,1.91483 0.63338,-0.368366 1.27854,-0.711785 1.9479,-1.011275 0.61228,-0.294542 1.18949,-0.65083 1.79923,-0.950103 0.90693,-0.401224 1.80673,-0.821362 2.74823,-1.138724 0.68606,-0.242993 1.376,-0.47739 2.04377,-0.768379 0.65245,-0.284308 0.44042,-0.221803 1.07974,-0.504314 0.20902,-0.09237 0.42157,-0.176533 0.63236,-0.264798 0.98008,-0.404789 0.47454,-0.202491 1.51736,-0.605028 1.31595,-0.536657 2.59514,-1.159394 3.89105,-1.741247 4.61894,-2.163244 -2.26921,1.059519 2.70313,-1.255334 1.64538,-0.765998 3.32172,-1.531469 4.66595,-2.783263 0.6092,-0.601723 1.78871,-1.735273 1.96672,-2.630239 0.0234,-0.117724 0.01,-0.239861 0.0146,-0.359791 -1.20273,-0.673304 -2.37611,-1.40195 -3.6082,-2.019914 -0.0889,-0.04461 -0.64396,0.237318 -0.64737,0.239102 -0.657,0.343259 -1.27537,0.761082 -1.95229,1.06785 -3.30492,1.742543 -6.46198,3.768572 -9.90278,5.250013 -1.82614,0.797888 -2.56732,1.127355 -4.33235,1.879018 -0.46169,0.19662 -0.92798,0.382463 -1.38787,0.583285 -0.25943,0.113289 -0.96551,0.154424 -0.76972,0.358888 2.52815,2.640116 2.12288,2.662643 3.67066,2.036408 3.81419,-1.38218 7.72451,-2.460468 11.57475,-3.734821 2.42314,-0.848013 4.8383,-1.691642 7.16295,-2.790145 0.79146,-0.374004 2.23046,-1.10191 2.9855,-1.675289 0.27109,-0.205867 0.48598,-0.476752 0.72898,-0.715129 -1.10659,-0.797327 -2.14523,-1.698646 -3.31977,-2.391984 -0.20006,-0.118091 -0.46737,-0.01654 -0.69661,0.02111 -0.4814,0.07905 -0.95669,0.195866 -1.42644,0.327536 -0.74517,0.20887 -1.4786,0.457615 -2.21571,0.693354 -2.12115,0.678367 -4.23088,1.392147 -6.35686,2.055571 -1.26235,0.397291 -2.52643,0.789115 -3.78704,1.191871 -3.58134,1.14421 -7.26269,2.246175 -10.41077,4.371626 0,0 3.32784,2.074611 3.32784,2.074611 z" />
    <path
       style="fill:#000000;stroke-width:0.264583"
       id="path564"
       d="m 127.90896,61.137598 c -1.63207,1.305343 -3.46293,2.339398 -5.29002,3.342283 -2.44422,1.351283 -5.07256,2.310664 -7.65618,3.351001 -1.74848,0.704059 -2.76509,1.135721 -4.50378,1.862526 -2.02112,0.863701 -4.02632,1.765205 -5.99944,2.73399 -0.79471,0.390199 -1.75283,0.869643 -2.52601,1.329825 -0.28,0.16665 -0.54643,0.35511 -0.81965,0.532667 0,0 3.20481,2.047023 3.20481,2.047023 v 0 c 0.25163,-0.180769 0.49596,-0.372168 0.7549,-0.542303 0.71509,-0.469845 1.65489,-0.994257 2.39404,-1.386647 1.92044,-1.01949 3.89746,-1.925561 5.89929,-2.772839 1.95048,-0.814662 2.54101,-1.073084 4.51024,-1.848313 2.63025,-1.035454 5.30862,-1.974908 7.81438,-3.298401 1.89859,-1.001054 3.78184,-2.03962 5.56068,-3.244432 0,0 -3.34326,-2.10638 -3.34326,-2.10638 z" />
    <path
       style="fill:#000000;stroke-width:0.264583"
       id="path566"
       d="m 112.0679,68.270066 c -1.48907,1.441268 -3.14682,2.705068 -4.80163,3.949097 -1.72153,1.375349 -3.60673,2.517042 -5.4488,3.718174 -0.83122,0.596283 -1.64849,1.221136 -2.382072,1.936067 -0.087,-0.212786 -0.182306,0.431583 -0.27499,0.324345 -0.04536,-0.05248 -0.01704,-0.232236 0.04586,-0.202991 1.133052,0.526769 2.136212,1.329674 3.308392,1.762424 0.17666,0.06522 -0.0467,-0.374023 -0.057,-0.56206 -0.0136,-0.249357 -0.01,-0.499359 -0.0144,-0.749041 0.10138,-1.93408 0.65059,-3.805515 1.11631,-5.674682 0.18925,-0.807554 0.36867,-1.618303 0.59373,-2.416972 0.0177,-0.06294 0.19237,-0.718672 0.28369,-0.772456 0.058,-0.03415 -0.023,0.132636 -0.0345,0.198951 -1.12769,-0.601237 -2.18641,-1.355178 -3.38308,-1.80371 -0.16369,-0.06136 -0.0135,0.349668 -0.0326,0.523441 -0.0265,0.241097 -0.0635,0.481018 -0.10393,0.720175 -0.16686,0.987589 -0.38417,1.968749 -0.5775,2.951353 -0.1971,0.972172 -0.378228,1.947563 -0.589225,2.916891 -0.03952,0.18157 -0.08135,0.36264 -0.124246,0.543441 -0.0209,0.08804 -0.148333,0.223155 -0.06711,0.263017 1.172351,0.57532 2.417331,0.988983 3.626001,1.483476 0.86381,-2.676694 1.79423,-5.330946 2.78881,-7.961691 0.64625,-1.676693 1.43521,-3.292726 2.20754,-4.913664 0.47221,-0.994323 0.88135,-2.012513 1.20775,-3.063544 0.31987,-1.0491 0.64166,-2.097347 0.94617,-3.151042 0.5316,-2.077485 0.79297,-1.352976 -3.25396,-2.858013 -0.15091,-0.05612 -0.12653,0.296132 -0.19092,0.443711 -0.0922,0.211246 -0.18583,0.421836 -0.27875,0.632754 -0.6881,1.729859 -1.14106,3.534841 -1.62604,5.327748 -0.45859,1.695376 -0.45648,1.651862 -0.95262,3.326558 -0.77238,2.5664 -1.61596,5.111912 -2.62599,7.595121 -0.34201,0.799894 -0.62773,1.621026 -1.01507,2.400602 0,0 3.4026,1.922555 3.4026,1.922555 v 0 c 0.34518,-0.812191 0.59993,-1.656609 0.92165,-2.478228 0.95345,-2.525167 1.75313,-5.104495 2.5151,-7.693104 0.91922,-3.128126 0.0556,-0.170915 0.96184,-3.328493 0.50242,-1.750554 0.97985,-3.521366 1.77384,-5.168405 0.10597,-0.200903 0.20795,-0.403958 0.3179,-0.602713 0.0675,-0.121986 0.32463,-0.274105 0.21421,-0.359201 -3.81682,-2.94142 -3.08349,-3.064576 -3.5814,-1.021971 -0.28874,1.056029 -0.6304,2.096423 -0.92762,3.150076 -0.31746,1.03628 -0.75184,2.024245 -1.19142,3.013773 -0.7379,1.657173 -1.40825,3.344781 -2.01704,5.053645 -0.95117,2.622243 -1.92764,5.237856 -3.002135,7.812355 1.089525,0.758539 2.135185,1.584333 3.268575,2.27562 0.0791,0.04824 -0.002,-0.185576 0.007,-0.27781 0.10959,-1.180406 0.40058,-2.339437 0.61143,-3.503104 0.20692,-0.977392 0.4337,-1.94935 0.64911,-2.924757 0.0527,-0.23881 0.10206,-0.478377 0.14975,-0.718249 0.0349,-0.175797 0.23311,-0.410771 0.0981,-0.528685 -1.02679,-0.896911 -2.24333,-1.549977 -3.36499,-2.324965 -0.0546,0.06875 -0.12389,0.128053 -0.16381,0.206248 -0.0769,0.150567 -0.21806,0.785924 -0.23574,0.860274 -0.19328,0.812816 -0.36196,1.630813 -0.53841,2.447391 -0.465667,1.893985 -1.027491,3.777207 -1.207056,5.72747 -0.0096,0.25024 -0.0222,0.500382 -0.02881,0.750718 -0.005,0.190471 -0.149691,0.446304 -0.0061,0.571582 2.856096,2.492351 2.652486,3.383285 3.811306,1.911926 0.68429,-0.710131 1.44089,-1.350099 2.23021,-1.940001 1.81488,-1.23829 3.6939,-2.387045 5.40347,-3.773758 1.67854,-1.279562 3.35609,-2.563061 4.99791,-3.889118 0,0 -3.35926,-2.058551 -3.35926,-2.058551 z" />
    <path
       style="fill:#000000;stroke-width:0.264583"
       id="path568"
       d="m 101.68437,80.93911 c 1.22665,-1.58297 2.96325,-2.695742 4.58798,-3.826563 2.35287,-1.556893 4.67752,-3.159374 7.09097,-4.62176 0.43922,-0.234736 0.86234,-0.50246 1.31765,-0.70421 1.36853,-0.606393 3.10787,-1.136301 4.52336,-1.524635 2.76997,-0.759936 5.58637,-1.318183 8.40356,-1.866559 1.73867,-0.312827 3.47396,-0.640505 5.20245,-1.005067 0,0 -3.07286,-2.125562 -3.07286,-2.125562 v 0 c -1.64314,0.431557 -3.29609,0.821058 -4.96137,1.159304 -2.80849,0.603303 -5.62618,1.184629 -8.41028,1.894731 -1.34017,0.341818 -3.43439,0.904074 -4.76796,1.446879 -0.47473,0.193231 -0.91326,0.465612 -1.36989,0.698418 -2.41325,1.462109 -4.68464,3.138038 -7.05369,4.669679 -1.7072,1.144059 -3.489869,2.265551 -4.893198,3.785674 0,0 3.403278,2.019671 3.403278,2.019671 z" />
    <path
       style="fill:#000000;stroke-width:0.264583"
       id="path570"
       d="m 126.87123,49.540734 c 3.50756,-1.373749 7.21939,-2.131441 10.91272,-2.811302 2.3592,-0.426907 4.72698,-0.799962 7.1016,-1.128701 0.79977,-0.157118 1.62107,-0.205391 2.41753,-0.380733 0.35144,-0.07737 0.69665,-0.180729 1.04487,-0.271489 0.20283,-0.05252 0.40518,-0.106961 0.60851,-0.157567 1.28968,-0.320996 -0.058,0.02413 1.0798,-0.255252 0.11651,-0.02861 0.23165,-0.06269 0.34818,-0.09124 0.0626,-0.01535 0.24299,-0.0051 0.1891,-0.04042 -1.16634,-0.765387 -2.38173,-1.453282 -3.5726,-2.179923 -0.52408,0.09218 -1.05465,0.135471 -1.58411,0.182115 0,0 3.16267,2.253086 3.16267,2.253086 v 0 c 0.5495,-0.05429 1.09988,-0.103982 1.6461,-0.186505 -0.97369,-0.76926 -1.91848,-1.57657 -2.92106,-2.307781 -0.0464,-0.03381 -0.10703,0.04154 -0.1615,0.05958 -0.10432,0.03457 -0.20903,0.06815 -0.31474,0.09822 -0.55361,0.157509 -1.1162,0.281464 -1.67423,0.421682 -1.12253,0.263993 -2.25496,0.475882 -3.39468,0.652756 -2.31974,0.34924 -4.61902,0.812033 -6.91747,1.279718 -3.76345,0.769906 -7.5242,1.585053 -11.20493,2.693464 0,0 3.23424,2.170285 3.23424,2.170285 z" />
    <path
       style="fill:#000000;stroke-width:0.264583"
       id="path572"
       d="m 134.41537,45.44415 c 1.66567,-1.002506 3.51533,-1.591442 5.36585,-2.144183 2.87916,-0.72082 5.79375,-1.285388 8.68188,-1.969111 1.63447,-0.40476 3.26746,-0.822092 4.86488,-1.356921 0.4265,-0.175895 0.87537,-0.296609 1.29867,-0.480796 0.34141,-0.148558 0.66359,-0.315058 1.01371,-0.444942 0.29416,-0.119821 0.61147,-0.191129 0.81035,-0.451167 0,0 -3.42645,-2.032312 -3.42645,-2.032312 v 0 c -0.19916,0.123856 -0.42522,0.210629 -0.64545,0.296463 -0.75292,0.315272 -1.48535,0.679619 -2.26215,0.937617 -1.55219,0.542877 -3.13732,0.98294 -4.72404,1.412412 -2.8791,0.735028 -5.7994,1.281996 -8.68542,1.987129 -0.97849,0.283996 -1.52002,0.425971 -2.46993,0.758706 -1.07265,0.375724 -2.1004,0.859869 -3.12797,1.342223 0,0 3.30607,2.144882 3.30607,2.144882 z" />
    <path
       style="fill:#000000;stroke-width:0.264583"
       id="path574"
       d="m 148.82455,40.00411 c 1.55943,-0.73393 3.2057,-1.252656 4.82894,-1.822172 0.86807,-0.23033 1.72601,-0.630766 2.63235,-0.689499 -1.12989,-0.63949 -2.22637,-1.342001 -3.38967,-1.918467 -0.064,-0.0317 -0.0638,0.1284 -0.10493,0.186751 -0.10776,0.152805 -0.22386,0.299659 -0.34093,0.445455 -0.1772,0.220681 -1.39525,1.684756 -1.473,1.782186 -0.32146,0.402849 -0.63051,0.81544 -0.94577,1.223161 -2.06917,2.518193 -3.49977,5.444794 -4.84499,8.389625 -0.18473,0.425471 -0.37941,0.846764 -0.55421,1.276416 -0.57486,1.413013 -1.08031,2.857045 -1.62436,4.28207 -0.48747,1.276807 -0.64214,1.653177 -1.14167,2.908826 -0.86583,2.309945 -1.87301,4.557548 -3.00471,6.74815 -0.84367,1.576274 -1.62369,3.185705 -2.42029,4.786154 -0.4907,0.997566 -0.95775,2.003007 -1.367,3.036565 -0.25016,0.638357 -0.39993,1.307711 -0.55384,1.973717 0,0 3.44964,1.857809 3.44964,1.857809 v 0 c 0.1508,-0.648891 0.28717,-1.303472 0.5145,-1.931315 0.39383,-1.029931 0.83618,-2.036575 1.30106,-3.036528 0.77316,-1.610696 1.51982,-3.235195 2.3525,-4.816361 1.12596,-2.212155 2.11048,-4.485222 2.94601,-6.824123 1.09041,-2.821744 2.15851,-5.653632 3.32408,-8.445153 1.28945,-2.939431 2.68614,-5.852777 4.78328,-8.317688 0.32566,-0.39538 0.64206,-0.798578 0.97698,-1.18614 0.85343,-0.987541 0.79329,-0.847929 1.6073,-1.711547 0.14057,-0.149135 0.28139,-0.298628 0.40963,-0.458489 0.0947,-0.118046 0.3758,-0.278767 0.2579,-0.373639 -1.04392,-0.839973 -2.26377,-1.434079 -3.39566,-2.151116 -0.87396,0.228746 -1.73555,0.500248 -2.58374,0.811594 -1.63629,0.615916 -3.2777,1.219433 -4.92995,1.791195 0,0 3.29055,2.182563 3.29055,2.182563 z" />
    <rect
       style="fill:#000000;stroke-width:0.264583"
       id="rect576"
       width="65.659828"
       height="0.61630666"
       x="94.541367"
       y="21.361359"
       ry="0" />
    <rect
       style="fill:#000000;stroke-width:0.264583"
       id="rect576-7"
       width="66.057793"
       height="0.55077201"
       x="94.671242"
       y="85.029716" />
    <rect
       style="fill:#000000;stroke-width:0.25332"
       id="rect635"
       width="0.63715899"
       height="66.84864"
       x="159.24113"
       y="20.317894" />
    <rect
       style="fill:#000000;stroke-width:0.253165"
       id="rect637"
       width="0.60029602"
       height="67.199654"
       x="94.925415"
       y="19.818676"
       ry="0.76655436"
       rx="0.0859375" />
    <rect
       style="fill:#000000;stroke-width:0.264583"
       id="rect576-3"
       width="65.659828"
       height="0.61630666"
       x="94.395302"
       y="21.708303"
       ry="0" />
    <rect
       style="fill:#000000;stroke-width:0.264583"
       id="rect576-7-8"
       width="66.057793"
       height="0.55077201"
       x="94.525185"
       y="85.376656" />
    <rect
       style="fill:#000000;stroke-width:0.25332"
       id="rect635-9"
       width="0.63715899"
       height="66.84864"
       x="159.09508"
       y="20.664839" />
    <rect
       style="fill:#000000;stroke-width:0.253165"
       id="rect637-6"
       width="0.60029602"
       height="67.199654"
       x="94.77935"
       y="20.165621"
       ry="0.76655436"
       rx="0.0859375" />
    <text
       xml:space="preserve"
       style="font-size:4.58611px;fill:#000000;stroke-width:0.264583"
       x="108.16524"
       y="80.941628"
       id="text753"><tspan
         sodipodi:role="line"
         style="font-style:normal;font-variant:normal;font-weight:bold;font-stretch:normal;font-size:4.58611px;font-family:'Berlin Sans FB Demi';-inkscape-font-specification:'Berlin Sans FB Demi Bold';fill:#000000;stroke-width:0.264583"
         x="108.16524"
         y="80.941628"
         id="tspan755">    <tspan
   style="font-style:normal;font-variant:normal;font-weight:bold;font-stretch:normal;font-family:'Berlin Sans FB';-inkscape-font-specification:'Berlin Sans FB Bold'"
   id="tspan956"> </tspan><tspan
   style="font-style:normal;font-variant:normal;font-weight:bold;font-stretch:normal;font-size:4.23333px;font-family:'Berlin Sans FB';-inkscape-font-specification:'Berlin Sans FB Bold'"
   id="tspan759">Esteban Garay</tspan></tspan></text>
    <rect
       style="fill:#000000;stroke-width:0.264583"
       id="rect576-6"
       width="65.659828"
       height="0.61630666"
       x="-161.4377"
       y="83.676109"
       ry="0"
       transform="rotate(-135.21405)" />
    <rect
       style="fill:#000000;stroke-width:0.264583"
       id="rect576-7-5"
       width="66.057793"
       height="0.55077201"
       x="-161.96552"
       y="20.073288"
       transform="rotate(-135.21405)" />
    <rect
       style="fill:#000000;stroke-width:0.25332"
       id="rect635-94"
       width="0.63715899"
       height="66.84864"
       x="-161.11481"
       y="18.487236"
       transform="rotate(-135.21405)" />
    <rect
       style="fill:#000000;stroke-width:0.253165"
       id="rect637-4"
       width="0.60029602"
       height="67.199654"
       x="-96.762215"
       y="18.635437"
       ry="0.76655436"
       rx="0.0859375"
       transform="rotate(-135.21405)" />
  </g>
</svg>
